#N canvas 0 0 1280 948 10;
#X obj 110 133 hradio 17 1 1 4 \$0-red \$0-red_in Red 0 -8 0 10 -262144
-1 -1 3;
#X obj 110 163 hradio 17 1 1 4 \$0-green \$0-green_in Green 0 -8 0
10 -262144 -1 -1 3;
#X obj 196 210 +;
#X obj 274 150 expr $f1*16;
#X obj 196 240 outlet;
#X obj 196 90 inlet;
#X obj 196 180 f;
#X obj 259 180 f;
#X obj 196 120 t b b;
#X obj 274 60 route red green;
#X obj 274 30 inlet;
#X obj 211 150 r \$0-red;
#X obj 274 88 s \$0-red_in;
#X obj 355 88 s \$0-green_in;
#X obj 274 120 r \$0-green;
#X connect 2 0 4 0;
#X connect 3 0 7 1;
#X connect 5 0 8 0;
#X connect 6 0 2 0;
#X connect 7 0 2 1;
#X connect 8 0 6 0;
#X connect 8 1 7 0;
#X connect 9 0 12 0;
#X connect 9 1 13 0;
#X connect 10 0 9 0;
#X connect 11 0 6 1;
#X connect 14 0 3 0;
#X coords 0 -1 1 1 88 90 1 100 100;
