#N canvas 441 163 450 300 10;
#X obj 130 117 until;
#X obj 130 147 counter;
#X obj 130 177 - 1;
#X obj 130 207 moses 1;
#X obj 215 117 mtx_zeros 9;
#X obj 215 147 outlet;
#X obj 130 87 t b b;
#X obj 130 57 inlet;
#X obj 130 237 t f f;
#X connect 0 0 1 0;
#X connect 1 0 2 0;
#X connect 2 0 3 0;
#X connect 3 1 8 0;
#X connect 4 0 5 0;
#X connect 6 0 0 0;
#X connect 6 1 4 0;
#X connect 7 0 6 0;
