#N canvas 0 0 1280 700 10;
#X obj 155 115 inlet velocity;
#X obj 68 115 inlet note;
#N canvas 0 0 1366 696 note2grid 0;
#X obj 331 145 inlet;
#X obj 331 175 t f f;
#X obj 331 265 pack f f;
#X obj 331 235 i;
#X obj 376 235 i;
#X obj 331 295 outlet;
#X obj 331 205 % 16;
#X obj 376 205 / 16;
#X connect 0 0 1 0;
#X connect 1 0 6 0;
#X connect 1 1 7 0;
#X connect 2 0 5 0;
#X connect 3 0 2 0;
#X connect 4 0 2 1;
#X connect 6 0 3 0;
#X connect 7 0 4 0;
#X restore 68 145 pd note2grid;
#X obj 68 205 unpack;
#X obj 68 175 route 8;
#X obj 68 235 expr $i1+$i2*8;
#X obj 119 205 expr $i1+64;
#X obj 68 265 outlet index;
#X obj 155 265 outlet velocity;
#X connect 0 0 8 0;
#X connect 1 0 2 0;
#X connect 2 0 4 0;
#X connect 3 0 5 0;
#X connect 3 1 5 1;
#X connect 4 0 6 0;
#X connect 4 1 3 0;
#X connect 5 0 7 0;
#X connect 6 0 7 0;
