#N canvas -1288 -8 1280 982 10;
#X obj 71 125 until;
#X obj 71 155 counter;
#X obj 71 35 loadbang;
#X obj 128 185 tgl 17 0 empty empty empty 17 7 0 10 -262144 -1 -1 0
63;
#X msg 71 95 64;
#X obj 71 5 inlet;
#X obj 71 65 t b b b b b b b;
#X msg 116 125 0;
#X obj 71 184 - 1;
#X obj 71 245 moses 63;
#X obj 71 215 spigot;
#X obj 116 273 t b f;
#X obj 71 305 outlet value;
#X connect 0 0 1 0;
#X connect 1 0 8 0;
#X connect 2 0 6 0;
#X connect 3 0 10 1;
#X connect 4 0 0 0;
#X connect 5 0 2 0;
#X connect 6 0 4 0;
#X connect 6 1 3 0;
#X connect 6 2 7 0;
#X connect 7 0 1 3;
#X connect 8 0 10 0;
#X connect 9 0 12 0;
#X connect 9 1 11 0;
#X connect 10 0 9 0;
#X connect 11 0 3 0;
#X connect 11 1 12 0;
